Movie :- My Little Eye ( 2002 )
Hindi Dubbed DVDRip
---------------------------------------------

---------------------------------------------

---------------------------------------------
Runtime : 91:26 Mins

Genre : Horror | Mystery | Thriller

Release Year : 4 October 2002 (UK)

IMDB Ratings : 5.7/10

Director : Marc Evans

Stars : Sean Cw Johnson , Kris Lemche and Stephen O'Reilly

Storyline :
Five young people apply to live in an isolated house together for six months whilst their every move is filmed by numerous cameras. Each has their reason for wanting to be there - fame, money, adventure. Theprize - $1 million. The rules - if one person leaves, everyone loses. It becomes the ultimate morality test. When Danny's beloved grandfather dies, does his greed overcome his love? When the skittish Emma finds blood on her pillow why does she still stay behind? And what dark secret does the house harbour that leaves them feeling as though they're being watched by more thanjust a million pairs of eyes?

Taglines :Fear Is Not Knowing. Terror Is Finding Out.

Motion Picture Rating ( MPAA ) :
Rated R for strong violence and sexuality, pervasive language and some drug use





General
Complete name : My_Little_Eye_2002_Hindi_Dubbed_DVDRip.avi
Format : AVI
Format/Info : Audio Video Interleave
File size : 134 MiB
Duration : 1h 31mn
Overall bit rate : 204 Kbps
Writing application : MEncoder VERSION
Writing library : MPlayer

Video
ID : 0
Format : MPEG-4 Visual
Format profile : Advanced Simple@L5
Format settings, BVOP : 2
Format settings, QPel : No
Format settings, GMC : No warppoints
Format settings, Matrix : Default (H.263)
Codec ID : XVID
Codec ID/Hint : XviD
Duration : 1h 31mn
Bit rate : 160 Kbps
Width : 320 pixels
Height : 240 pixels
Display aspect ratio : 1.85:1
Original display aspect ratio : 4:3
Frame rate : 25.000 fps
Color space : YUV
Chroma subsampling : 4:2:0
Bit depth : 8 bits
Scan type : Progressive
Compression mode : Lossy
Bits/(Pixel*Frame) : 0.083
Stream size : 105 MiB (78%)
Writing library : XviD 1.2.1 (UTC 2008-12-04)

Audio
ID : 1
Format : MPEG Audio
Format version : Version 2
Format profile : Layer 3
Codec ID : 55
Codec ID/Hint : MP3
Duration : 1h 31mn
Bit rate mode : Constant
Bit rate : 32.0 Kbps
Channel(s) : 1 channel
Sampling rate : 22.05 KHz
Compression mode : Lossy
Delay relative to video : 80ms
Stream size : 20.9 MiB (16%)
Alignment : Aligned on interleaves
Interleave, duration : 26 ms (0.65 video frame)
Interleave, preload duration : 522 ms



[img]http://www.shotpix.com/images/39741266100115848635.gif[/img]




[img]http://www.shotpix.com/images/71235102334160420507.png[/img]





[img]http://www.shotpix.com/images/62335864896943735373.png[/img]





[img]http://www.shotpix.com/images/14599792936162780205.png[/img]




[img]http://www.shotpix.com/images/03301610939270195295.png[/img]






[img]http://www.shotpix.com/images/01397436116683363236.png[/img]






[img]http://www.shotpix.com/images/06579233777291415826.gif[/img]






[img]http://www.shotpix.com/images/37530658244654420663.jpg[/img]